<!--
  - Copyright 2022 Quentin Ligier. Use of this source code is governed by the MIT license.
  -->
<svg width="40" height="40" xmlns="http://www.w3.org/2000/svg">
    <!--
    Documentation: https://plugins.jetbrains.com/docs/intellij/plugin-icon-file.html
    https://plugins.jetbrains.com/docs/marketplace/plugin-overview-page.html#plugin-logo
    -->
    <path fill="#DB5860"
          d="m11.42014,11.09994c0,0 -1.40097,7.03616 -0.75136,8.97717c0,0 0.86093,-10.64425 9.1337,-18.86223c0,0 -0.26611,6.87963 4.03073,10.37031s5.26734,8.92238 5.26734,8.92238s0.48525,-3.70983 -0.9705,-9.65026c0,0 9.1337,9.4859 4.94644,20.07536c0,0 -5.04819,11.66171 -19.50402,6.55873s-4.73512,-24.56003 -2.15233,-26.39147z"/>
    <path fill="#F0A732"
          d="m26.84647,20.09276c0.13305,2.98195 -1.21313,3.76462 -2.30104,3.92115c-0.69657,0.10175 -1.40097,-0.07827 -2.01145,-0.41481c-5.98739,-3.24806 -2.91151,-11.18429 -2.91151,-11.18429c-3.92115,3.74897 -1.8784,11.53648 -1.8784,11.53648s1.21313,4.41423 -1.26792,4.79774c-1.24444,0.19567 -1.82361,-0.30524 -2.08972,-0.84528c-0.24263,-0.50091 -0.24263,-1.0879 -0.03131,-1.60446c1.68273,-4.17943 0.24263,-6.54308 0.24263,-6.54308c-0.80615,2.39496 -1.65925,3.97594 -2.27756,4.92296c-0.87659,1.34618 -1.43228,2.88021 -1.51054,4.48467c-0.28176,5.97956 4.7273,8.36669 4.7273,8.36669c8.22581,4.19509 11.91999,-3.47503 11.91999,-3.47503c4.24987,-8.17102 -0.61048,-13.96275 -0.61048,-13.96275z"/>
</svg>
