<svg xmlns="http://www.w3.org/2000/svg" width="16" height="16" viewBox="0 0 16 16">
  <g fill="none" fill-rule="evenodd">
    <path fill="#62B543" fill-opacity=".6" d="M15,8 C15,11.866 11.866,15 8,15 C4.134,15 1,11.866 1,8 C1,4.134 4.134,1 8,1 C11.866,1 15,4.134 15,8"/>
    <path fill="#231F20" fill-opacity=".7" d="M5,4.28253174 C4.53,4.74153174 4.028,4.978 3.1,5 C2.061,5.022 1,4.2794 1,3.0004 C1,1.7124 1.971,1 3.1,1 C3.94833171,1 4.54833171,1.18475342 4.9,1.55426025 L5.5162,0.836730957 C4.8293999,0.270175195 4.28826904,0.0004 3.0982,0.0004 C1.3402,0.0004 0.0002,1.3584 0.0002,3.0004 C0.0002,4.6824 1.3642,6.0004 3.0022,6.0004 C4.29284668,6.0004 5.0232,5.5934 5.6162,4.9814 C5.2054,4.51548783 5,4.28253174 5,4.28253174 Z" transform="translate(2.3 5)"/>
    <path fill="#231F20" fill-opacity=".7" d="M2.82003839,6 C1.99736929,6 1.08694881,5.71480804 0.363,5.13345521 L0.955321755,4.23400366 C1.5915192,4.70566728 2.2606234,4.94698355 2.85294516,4.94698355 C3.42332907,4.94698355 3.75239671,4.70566728 3.75239671,4.32175503 L3.75239671,4.29981718 C3.75239671,3.85009141 3.13813711,3.69652651 2.45806399,3.488117 C1.60248812,3.24680073 0.648191956,2.89579525 0.648191956,1.79890311 L0.648191956,1.77696527 C0.648191956,0.669104205 1.55861243,-1.77635684e-14 2.71034918,-1.77635684e-14 C3.43429799,-1.77635684e-14 4.22406033,0.252285192 4.83831993,0.658135283 L4.3118117,1.60146252 C3.75239671,1.26142596 3.16007495,1.05301645 2.67744241,1.05301645 C2.16190311,1.05301645 1.86574223,1.30530165 1.86574223,1.62340037 L1.86574223,1.64533821 C1.86574223,2.07312614 2.49097075,2.24862888 3.17104388,2.46800731 C4.01565082,2.73126143 4.96994698,3.11517367 4.96994698,4.15722121 L4.96994698,4.17915905 C4.96994698,5.39670932 4.02661974,6 2.82003839,6 Z" transform="translate(8.2 5)"/>
  </g>
</svg>
