<!--
  - Copyright 2022 Quentin Ligier. Use of this source code is governed by the MIT license.
  -->
<svg width="16" height="16" viewBox="0 0 16 16" fill="none" xmlns="http://www.w3.org/2000/svg">
    <path fill-rule="evenodd" clip-rule="evenodd" d="M1 16H16V9H1V16Z" fill="#F26522" fill-opacity="0.7"/>
    <path fill-rule="evenodd" clip-rule="evenodd" d="M7 1L3 5H7V1Z" fill="#9AA7B0" fill-opacity="0.8"/>
    <path fill-rule="evenodd" clip-rule="evenodd" d="M8 1V6H3V8H13V1H8Z" fill="#9AA7B0" fill-opacity="0.8"/>

    <polygon fill="#231F20" fill-opacity=".7" points="1 1.001 3 1.001 3 0 0 0 0 5 1 5 1 3 2.8 3 2.8 2 1 2"
             transform="translate(2 10)"/>
    <path fill="#231F20" fill-opacity=".7"
          d="M0.972767969,1.50152588 C0.972767969,1.13305664 1.284,1 1.845,1 C1.85033333,1 2.23533333,1 3,1 L3,0 C2.26266667,0 1.88266667,0 1.86,0 C0.778,0 0,0.45916748 0,1.45 C0,2.31452637 0.419555664,2.69049072 1.47125244,2.91607666 C2.24158869,3.08131157 2.496155,3.22862939 2.496155,3.548 C2.496155,3.86737061 2.13842773,4 1.47125244,4 C1.46058577,4 1.07016829,4 0.3,4 L0.3,5 C1.07550163,5 1.46591911,5 1.47125244,5 C3.5,5 3.5,4 3.5,3.548 C3.5,2.91607666 3.02026367,2.42071533 2.15869141,2.14685059 C1.29711914,1.87298584 0.972767969,1.86999512 0.972767969,1.50152588 Z"
          transform="translate(5.8 10)"/>
    <polygon fill="#231F20" fill-opacity=".7" points="0 0 1 0 1 2 3 2 3 0 4 0 4 5 3 5 3 3 1 3 1 5 0 5"
             transform="translate(10 10)"/>
</svg>
